<?xml version="1.0" encoding="UTF-8" standalone="no"?>
<!-- Created for MapSVG plugin: http://mapsvg.com -->
<svg
   xmlns:mapsvg="http://mapsvg.com"
   xmlns:dc="http://purl.org/dc/elements/1.1/"
   xmlns:rdf="http://www.w3.org/1999/02/22-rdf-syntax-ns#"
   xmlns:svg="http://www.w3.org/2000/svg"
   xmlns="http://www.w3.org/2000/svg"
   mapsvg:geoViewBox="41.768931 12.712172 43.417557 10.912065"
   width="612.41125"
   height="678.79425">

  <path
     d="m 468.77126,608.41247 -8.81,14.83 -2.25,2.99 -5.73,11.11 -9,14.08 -3.5,-0.21 -11.99,2.15 -4.8,2.08 -5.53,1.33 -2.53,0.07 -1.92,-1.31 -0.9,0.14 -1.54,1.28 -1.92,0.19 -1.65,-1 -2.02,-3.44 -1.91,0.53 -2.75,-1.14 -3.09,0.14 -3.98,-0.89 -11.91,-0.77 -1.7,-0.69 -1.08,-3.89 -1.66,-2.78 -0.01,-1.57 1.25,-3.68 -1.07,-2.09 -0.31,-2.91 -3.31,-4.52 -0.96,-3.83 -1.53,-1.33 -1.7,-0.62 -0.8,-4.6 -2.76,-2.36 -2.21,0.31 -0.85,3.62 -1.8,1.18 -2.34,-1.44 -1.34,0.19 -1.81,0.89 -1.57,0.01 -3.14,2.01 -8.68,1.95 -1.3,-2.21 -1.88,-1.79 -6.75,-4.48 -2.57,0.37 -2.77,-3.88 -5.28,-2.92 -2.74,0.61 -4.4,3.53 -1.86,0.89 0,0 -0.09,-42.41 19.79,-12.51 0,0 72.56,-42.85 0,0 21.05,-39.22 43.69,-8.44 14.5,-2.29 56.24,26.74 0,0 -21.02,34.48 -2.83,3.76 -0.8,2.22 -5.36,7.8 -6.1,10.79 -13.72,21.4 -2.35,4.63 -4.1,5.8 z"
     title="Ali Sabieh" style:'background:transparent'
     id="DJ-AS" />
 
</svg>
